<?xml version="1.0" encoding="UTF-8"?>
<svg width="44px" height="44px" viewBox="0 0 44 44" version="1.1" xmlns="http://www.w3.org/2000/svg" xmlns:xlink="http://www.w3.org/1999/xlink">
    <!-- Generator: Sketch 52.6 (67491) - http://www.bohemiancoding.com/sketch -->
    <title>instagram</title>
    <desc>Created with Sketch.</desc>
    <g id="Page-1" stroke="none" stroke-width="1" fill="none" fill-rule="evenodd">
        <g id="Desktop" transform="translate(-946.000000, -1866.000000)">
            <g id="Footer" transform="translate(-1.000000, 1827.000000)">
                <g id="instagram" transform="translate(947.000000, 39.000000)">
                    <circle id="Oval" stroke="#FFFFFF" stroke-width="2" cx="22" cy="22" r="21"></circle>
                    <path d="M28.1347601,12 L15.8652399,12 C13.7344779,12 12,13.733302 12,15.8652399 L12,28.1347601 C12,30.266698 13.7344779,32 15.8652399,32 L28.1347601,32 C30.2655221,32 32,30.266698 32,28.1347601 L32,15.8652399 C32,13.733302 30.2655221,12 28.1347601,12 L28.1347601,12 Z M28.6088766,14.0020747 L29,14 L29,16.9906639 L26.0104022,17 L26,14.0093361 L28.6088766,14.0020747 L28.6088766,14.0020747 Z M18.6617672,19.4591615 C19.2978119,18.5775848 20.3313847,18 21.4994154,18 C22.6674461,18 23.7010189,18.5775848 24.3370636,19.4591615 C24.7521296,20.0344079 25,20.7382662 25,21.5005846 C25,23.4297645 23.4297645,25 21.4994154,25 C19.5702355,25 18,23.4297645 18,21.5005846 C18,20.7382662 18.2478704,20.0344079 18.6617672,19.4591615 L18.6617672,19.4591615 Z M30,28.1031072 C30,29.1493076 29.1459033,30 28.0955163,30 L15.9044837,30 C14.8540967,30 14,29.1493076 14,28.1031072 L14,20 L16.9677231,20 C16.7106762,20.6284185 16.5669636,21.3138601 16.5669636,22.0318864 C16.5669636,25.0157105 19.0042354,27.4444315 22,27.4444315 C24.996933,27.4444315 27.4342048,25.0157105 27.4342048,22.0318864 C27.4342048,21.3138601 27.2881554,20.6284185 27.0334453,20 L30,20 L30,28.1031072 L30,28.1031072 Z" id="Shape" fill="#FFFFFF"></path>
                </g>
            </g>
        </g>
    </g>
</svg>